<svg xmlns="http://www.w3.org/2000/svg" viewBox="0 0 381.91 38.86"><defs><style>.cls-1{fill:#fff;}.cls-2{fill:#f58220;}.cls-3{fill:#4d4d4f;}</style></defs><title>Asset 3</title><g id="Layer_2" data-name="Layer 2"><g id="Layer_1-2" data-name="Layer 1"><path class="cls-1" d="M31,32.08q-4.8,4.62-13.11,4.63T4.75,32.13Q0,27.54,0,19.49T4.78,7.14Q9.55,2.78,17.87,2.77T31,7.14q4.8,4.4,4.8,12.35T31,32.08ZM29.19,8.86Q25.13,5.11,17.87,5.1C13.05,5.1,9.3,6.36,6.59,8.86s-4,6.05-4,10.63,1.36,8.2,4.08,10.87,6.47,4,11.25,4,8.61-1.32,11.32-4,4.05-6.28,4.05-10.92S31.89,11.37,29.19,8.86Z"/><path class="cls-1" d="M58,36.36V20.48a6.25,6.25,0,0,0-2.09-5,8.65,8.65,0,0,0-5.57-1.64,8.81,8.81,0,0,0-6.59,2.47,8.81,8.81,0,0,0-2.42,6.44V36.36H38.82V12h2.53v3.34q2.9-3.88,9-3.89a11.76,11.76,0,0,1,7.22,2.09,7.65,7.65,0,0,1,3,6.47V36.36Z"/><path class="cls-1" d="M65.84,25.11q.5,9.45,10,9.46,7.22,0,9.51-5.93h2.58A10.57,10.57,0,0,1,83,35.21a14.72,14.72,0,0,1-7.27,1.69q-6.12,0-9.35-3.53-3-3.28-3-9.11A12.63,12.63,0,0,1,66.81,15,12.23,12.23,0,0,1,76,11.47a12.89,12.89,0,0,1,9.16,3.21,11.29,11.29,0,0,1,3.43,8.64v1.74ZM76,13.81a10.13,10.13,0,0,0-6.94,2.39,9.76,9.76,0,0,0-3.16,6.57h19.9a9.1,9.1,0,0,0-2.91-6.57A9.93,9.93,0,0,0,76,13.81Z"/><path class="cls-1" d="M121.07,10.08q-3.78-5.47-12.14-5.47-7.17,0-11.42,4t-4.25,10.9q0,6.77,4,10.79t11.08,4q8,0,12.24-5.58l2.19,1.4q-5,6.51-14.39,6.52-8.16,0-12.93-4.58c-3.19-3.06-4.78-7.18-4.78-12.39S92.36,10.15,95.65,7s7.71-4.73,13.28-4.73q9.7,0,14.29,6.47Z"/><path class="cls-1" d="M126.85,36.36V2.62h2.53V36.36Z"/><path class="cls-1" d="M134.81,7.64q-.8,0-1.2-1V3.16q.45-1,1.2-1c.4,0,.84.3,1.34.89V6.75A1.86,1.86,0,0,1,134.81,7.64Zm-1.2,28.72V11.67h2.54V36.36Z"/><path class="cls-1" d="M159,35.06a13.36,13.36,0,0,1-7.16,1.84q-5.88,0-9.31-3.36a11.91,11.91,0,0,1-3.43-8.93,13.13,13.13,0,0,1,3.5-9.5q3.51-3.64,9.78-3.64a12.41,12.41,0,0,1,6.57,1.7A9.5,9.5,0,0,1,163.17,19l-2.34,1.14q-1.68-6.36-8.51-6.37-5.07,0-7.86,3a11,11,0,0,0-2.79,7.81,9.85,9.85,0,0,0,2.69,7.27,10.1,10.1,0,0,0,7.47,2.69,10.91,10.91,0,0,0,5.82-1.5A7.81,7.81,0,0,0,161,27.6l2.39,1A10,10,0,0,1,159,35.06Z"/><path class="cls-1" d="M187.46,36.36,174.62,22.82,169,26.75v9.61h-2.53V2.62H169v21.2l17.07-12.2,4.48.1-13.93,9.66,14.23,15Z"/><path class="cls-2" d="M204.62,36.36H192.93V2.62h13.59q8.31,0,12.64,4.52,4.13,4.4,4.13,12.4,0,8.25-5.28,12.69Q213.09,36.35,204.62,36.36ZM217.31,8.84Q213.68,5,206.47,5h-11V34h9.3q7.57,0,11.77-3.69t4.21-10.79Q220.75,12.48,217.31,8.84Z"/><path class="cls-2" d="M231.55,17.79a16.14,16.14,0,0,0-2.19,8.81v9.76h-2.54V12h2.54v4.13a9.47,9.47,0,0,1,1.89-2A13.49,13.49,0,0,1,240,11.47v2.34Q234.14,13.81,231.55,17.79Z"/><path class="cls-2" d="M243.84,7.64q-.79,0-1.2-1V3.16q.45-1,1.2-1c.4,0,.84.3,1.34.89V6.75A1.88,1.88,0,0,1,243.84,7.64Zm-1.2,28.72V11.67h2.54V36.36Z"/><path class="cls-2" d="M260.61,36.36h-2.29L246.57,12.07h2.94l9.9,21,9.26-21h2.78Z"/><path class="cls-2" d="M273.74,25.11q.5,9.45,10,9.46,7.22,0,9.5-5.93h2.59a10.58,10.58,0,0,1-4.93,6.57,14.68,14.68,0,0,1-7.26,1.69q-6.12,0-9.36-3.53-3-3.28-3-9.11A12.67,12.67,0,0,1,274.71,15a12.27,12.27,0,0,1,9.19-3.54,12.86,12.86,0,0,1,9.15,3.21,11.25,11.25,0,0,1,3.43,8.64v1.74Zm10.16-11.3A10.14,10.14,0,0,0,277,16.2a9.76,9.76,0,0,0-3.16,6.57H293.7a9.18,9.18,0,0,0-2.91-6.57A10,10,0,0,0,283.9,13.81Z"/><path class="cls-1" d="M362.48,0H330.27a19.43,19.43,0,0,0,0,38.86h32.21a19.43,19.43,0,1,0,0-38.86Z"/><path class="cls-1" d="M330.27,12a7.45,7.45,0,1,0,7.45,7.45A7.46,7.46,0,0,0,330.27,12Z"/><path class="cls-3" d="M351,12h4.75V6.16H351a13.24,13.24,0,0,0-10.36,5,13.28,13.28,0,1,0,0,16.57,13.27,13.27,0,0,0,10.36,5h4.75V26.88H351A7.45,7.45,0,0,1,351,12Zm-20.72,14.9a7.45,7.45,0,1,1,7.45-7.45A7.46,7.46,0,0,1,330.27,26.88Z"/><path class="cls-2" d="M362.48,32.71h-4.75V26.88h4.75a7.45,7.45,0,0,0,0-14.9h-4.75V6.16h4.75a13.28,13.28,0,1,1,0,26.55Z"/></g></g></svg>